<svg xmlns="http://www.w3.org/2000/svg" viewBox="0 0 512 512" role="img" aria-label="Looper Station icon">
  <rect width="512" height="512" rx="96" fill="#10110f"/>
  <path d="M142 295c0-67 47-122 111-136 9-2 18 4 20 13 2 10-4 19-14 21-48 10-83 52-83 102 0 58 47 105 105 105h24l-30-30c-7-7-7-18 0-25s18-7 25 0l59 59c7 7 7 18 0 25l-59 59c-7 7-18 7-25 0s-7-18 0-25l29-29h-23c-77 0-139-62-139-139Z" fill="#83e377"/>
  <path d="M370 217c0 67-47 122-111 136-9 2-18-4-20-13-2-10 4-19 14-21 48-10 83-52 83-102 0-58-47-105-105-105h-24l30 30c7 7 7 18 0 25s-18 7-25 0l-59-59c-7-7-7-18 0-25l59-59c7-7 18-7 25 0s7 18 0 25l-29 29h23c77 0 139 62 139 139Z" fill="#68d8bd"/>
  <circle cx="256" cy="256" r="58" fill="#ff6b5f"/>
  <circle cx="256" cy="256" r="24" fill="#10110f"/>
</svg>
